<svg xmlns="http://www.w3.org/2000/svg" viewBox="0 0 512 512"><defs><style>.cls-1{fill:#052f56;}.cls-2{fill:#fffbeb;}.cls-3{fill:#d8e0c9;}.cls-4{fill:#c2eeff;}.cls-5{fill:#309fc1;}.cls-6{fill:#ff4f4f;}.cls-7{fill:#dbdbdb;}.cls-8{fill:#c7ceb6;}.cls-9{fill:#7acfea;}.cls-10{fill:#1f92b5;}.cls-11{fill:#272749;}.cls-12{fill:#13132b;}.cls-13{fill:#39375e;}.cls-14{fill:#dd2828;}</style></defs><title>postcard</title><g id="Layer_2" data-name="Layer 2"><g id="Capa_1" data-name="Capa 1"><path class="cls-1" d="M512,256a256.24,256.24,0,0,1-7,59.8,250.36,250.36,0,0,1-19.6,54h0c-.8,1.6-1.6,3.2-2.5,4.8-4,7.7-8.4,15.1-13.1,22.3A256.08,256.08,0,0,1,78,440c-5.9-5.7-11.5-11.7-16.8-17.9-2-2.4-4-4.7-5.9-7.2A256,256,0,1,1,486,143.5,254.48,254.48,0,0,1,512,256Z"/><path class="cls-2" d="M505,315.8a250.36,250.36,0,0,1-19.6,54h0c-.8,1.6-1.6,3.2-2.5,4.8-4,7.7-8.4,15.1-13.1,22.3L101.2,437.5h0L78,440c-5.9-5.7-11.5-11.7-16.8-17.9-2-2.4-4-4.7-5.9-7.2A253.92,253.92,0,0,1,26,368.5L7,196.3l-6.9-63a13.45,13.45,0,0,1,11.8-14.8l30.3-3.3,23.2-2.6h0L434,72l30.3-3.3a13.39,13.39,0,0,1,14.8,11.8l6.9,63Z"/><path class="cls-3" d="M101.2,437.4,78,440c-5.9-5.7-11.5-11.7-16.8-17.9-2-2.4-4-4.7-5.9-7.2A253.92,253.92,0,0,1,26,368.5L7,196.3l-6.9-63a13.45,13.45,0,0,1,11.8-14.8l30.3-3.3,23.2-2.6a13.39,13.39,0,0,0-11.8,14.8l1.5,13.7,6,54.7,3.1,27.9L68.5,263h0l8.7,78.5,2.6,23.8h0l1.8,16h0l2.5,22.5h0l1.8,16h0l.6,5.7A13.11,13.11,0,0,0,101.2,437.4Z"/><path class="cls-4" d="M239.2,323.7,58,343.6a6.37,6.37,0,0,1-7.1-5.7L30.2,150.3a6.37,6.37,0,0,1,5.7-7.1l181.2-20a6.37,6.37,0,0,1,7.1,5.7L245,316.5A6.52,6.52,0,0,1,239.2,323.7Z"/><path class="cls-5" d="M35.9,143.2a6.41,6.41,0,0,0-5.7,7.1L50.9,337.9a6.41,6.41,0,0,0,7.1,5.7l19.2-2.1L55.1,141.1Z"/><path class="cls-6" d="M460.6,201.8l-72.1,7.9a6.37,6.37,0,0,1-7.1-5.7l-10-91.3a6.37,6.37,0,0,1,5.7-7.1l72.1-7.9a6.37,6.37,0,0,1,7.1,5.7l10,91.3A6.29,6.29,0,0,1,460.6,201.8Z"/><path class="cls-7" d="M469.8,299.6l-76.9,8.5a8.05,8.05,0,1,1-1.8-16l76.9-8.5a8.05,8.05,0,0,1,1.8,16Z"/><path class="cls-7" d="M474,338.2,325.6,354.5a8.05,8.05,0,1,1-1.8-16l148.4-16.3a8.05,8.05,0,0,1,1.8,16Z"/><path class="cls-7" d="M485.4,369.8h0c-.8,1.6-1.6,3.2-2.5,4.8a7.68,7.68,0,0,1-4.7,2.2L329.8,393.1a8.05,8.05,0,1,1-1.8-16l148.4-16.3a8.07,8.07,0,0,1,8.9,7.1A4,4,0,0,1,485.4,369.8Z"/><path class="cls-7" d="M246.3,402.3,85.8,419.9h0l-21.6,2.4a9.9,9.9,0,0,1-3-.2c-2-2.4-4-4.7-5.9-7.2a8.17,8.17,0,0,1,7.2-8.7l21.6-2.4,160.5-17.7a8.07,8.07,0,0,1,8.9,7.1A8.3,8.3,0,0,1,246.3,402.3Z"/><path class="cls-8" d="M85.8,419.9h0l-21.6,2.4a9.9,9.9,0,0,1-3-.2c-2-2.4-4-4.7-5.9-7.2a8.17,8.17,0,0,1,7.2-8.7l21.6-2.4Z"/><path class="cls-7" d="M183,370.2,60,383.8a8.05,8.05,0,1,1-1.8-16l123-13.5a8,8,0,1,1,1.8,15.9Z"/><path class="cls-8" d="M58.2,367.7a8.05,8.05,0,1,0,1.8,16l21.6-2.4-1.8-16.1Z"/><path class="cls-9" d="M237.1,245.1l3,26.8a7.76,7.76,0,0,1-6.2,4.5L146.8,286a7.76,7.76,0,0,1-5.7-1.7,7.48,7.48,0,0,1-2.8-5.2,7.72,7.72,0,0,1,6.8-8.5l8.4-.9a7.72,7.72,0,0,0,6.8-8.5,7.72,7.72,0,0,1,6.8-8.5Z"/><path class="cls-9" d="M205.8,172.1h0a7.72,7.72,0,0,0-8.5-6.8L84.7,177.7a7.72,7.72,0,0,0-6.8,8.5h0a7.72,7.72,0,0,1-6.8,8.5l-22,2.4a7.72,7.72,0,0,0-6.8,8.5h0a7.72,7.72,0,0,0,8.5,6.8l2.5-.3a7.72,7.72,0,0,1,8.5,6.8h0a7.72,7.72,0,0,0,8.5,6.8l114.4-12.6a7.72,7.72,0,0,0,6.8-8.5h0a7.72,7.72,0,0,0-8.5-6.8l-4.3.5a7.72,7.72,0,0,1-8.5-6.8h0A7.72,7.72,0,0,1,177,183l22-2.4A7.65,7.65,0,0,0,205.8,172.1Z"/><path class="cls-10" d="M61.1,195.8l-12,1.3a7.7,7.7,0,1,0,1.7,15.3l2.5-.3a7.72,7.72,0,0,1,8.5,6.8,7.64,7.64,0,0,0,2.4,4.8Z"/><path class="cls-11" d="M204.4,280.9l25.2,43.8L58,343.6a6.42,6.42,0,0,1-7.1-5.7l-6.2-56a5.43,5.43,0,0,1,3.4-1.6L59.7,279a5.72,5.72,0,0,0,4.8-3.9L79,230.8l2-6.2,2.1-6.4,13.6-41.9h0l9.1-28.1a6.62,6.62,0,0,1,2.1-3.1h0c.1-.1.3-.2.4-.3s.4-.3.6-.4a.1.1,0,0,0,.1-.1.76.76,0,0,1,.5-.2c.1-.1.3-.1.4-.2s.4-.1.6-.2.2-.1.4-.1h2.2a6,6,0,0,1,1.9.6,7.2,7.2,0,0,1,2.8,2.4l16.5,25.5,14.1,21.8h0l7.6,11.7,6.4,9.9L180,242.8l5.1,8,18.7,28.9Z"/><path class="cls-12" d="M68.5,263l-3.9,12.1a5.57,5.57,0,0,1-4.8,3.9l-11.6,1.3a5.43,5.43,0,0,0-3.4,1.6l6.2,56a6.41,6.41,0,0,0,7.1,5.7l19.2-2.1Z"/><path class="cls-13" d="M204.4,280.9l25.2,43.8-53.1,5.8-.3-.4-19.1-24.9-4.5-5.9a19.54,19.54,0,0,1-4-13.2v-.3l.9-15.6.7-12.2a19.94,19.94,0,0,0-6.7-16l-24.6-21.7-6.7-6a18.93,18.93,0,0,1-3.2-3.7c-.1-.1-.2-.3-.3-.4s-.1-.1-.1-.2a2.09,2.09,0,0,0-.4-.6c-.2-.4-.4-.7-.6-1.1a5.94,5.94,0,0,1-.4-.8c-.2-.4-.3-.8-.5-1.2s-.3-.7-.4-1.1a11.7,11.7,0,0,1-.5-2,1.27,1.27,0,0,1-.1-.6,17.44,17.44,0,0,1-.1-5.1l2.2-22.5,3.1-31.4h2.3a6,6,0,0,1,1.9.6,7.2,7.2,0,0,1,2.8,2.4l16.5,25.5,14.1,21.8h0l7.6,11.7,6.4,9.9,17.6,27.3,5.1,8,18.7,28.9Z"/><path class="cls-13" d="M242.6,294.7l2.4,21.8a6.52,6.52,0,0,1-5.7,7.2l-92.6,10.2,10.4-28.6,7.7-21.2,11.8-32.3,3.2-8.9,7.7-19.6a5.54,5.54,0,0,1,2.9-3.1c.2-.1.3-.1.5-.2s.1,0,.2-.1.1,0,.2-.1h.1c.1,0,.2-.1.3-.1h.2a.6.6,0,0,0,.4-.1h.8a5.71,5.71,0,0,1,4.6,2.5l15.8,25.6,18,29Z"/><path class="cls-11" d="M205,279.7c-.2.4-.4.8-.6,1.3-.7,1.4-1.5,2.8-2.3,4.2l-25.3,44.2-.6.9c-.1.1-.2.3-.3.4l-29.3,3.2L157,305.3l7.7-21.2,11.8-32.3,3.2-8.9,7.7-19.6a5.54,5.54,0,0,1,2.9-3.1c.2-.1.3-.1.5-.2s.1,0,.2-.1.1,0,.2-.1h.1c.1,0,.2-.1.3-.1h.2a.6.6,0,0,0,.4-.1h.8l10.7,29.2,2,5.4A35,35,0,0,1,205,279.7Z"/><path class="cls-3" d="M144.1,214.2l11.8-8.5-38.2-59.1a6,6,0,0,0-2.8-2.4,7,7,0,0,0-1.9-.6,7.16,7.16,0,0,0-4.7,1.1c-.1.1-.3.2-.4.3h-.1a6.62,6.62,0,0,0-2.1,3.1L83,218.1h0a52.54,52.54,0,0,1,47.4-3.4l1.7.7A12,12,0,0,0,144.1,214.2Z"/><path class="cls-2" d="M112.1,143.7h-.7a.9.9,0,0,0-.5.1h0l-5.3,53.9a20,20,0,0,0,3.3,13.1,51.76,51.76,0,0,1,21.5,4.1l1.7.7a12.28,12.28,0,0,0,12-1.3l11.8-8.5-38.2-59.1a6,6,0,0,0-2.8-2.4,7,7,0,0,0-1.9-.6,1.27,1.27,0,0,1-.6-.1C112.4,143.7,112.2,143.7,112.1,143.7Z"/><path class="cls-14" d="M429.9,143.2c-9.5,1-15.2-3.5-19-6.5-3.2-2.6-4.4-3.4-7.1-3.1s-3.7,1.3-6.3,4.6c-3,3.8-7.6,9.5-17.1,10.5s-15.2-3.5-19-6.5c-3.2-2.6-4.4-3.4-7.1-3.1s-3.7,1.3-6.3,4.6c-3,3.8-7.6,9.5-17.1,10.5s-15.2-3.5-19-6.5c-3.2-2.6-4.4-3.4-7.1-3.1a8.05,8.05,0,0,1-1.8-16c9.5-1,15.2,3.5,19,6.5,3.2,2.6,4.4,3.4,7.1,3.1s3.7-1.3,6.3-4.6c3-3.8,7.6-9.5,17.1-10.5s15.2,3.5,19,6.5c3.2,2.6,4.4,3.4,7.1,3.1s3.7-1.3,6.3-4.6c3-3.8,7.6-9.5,17.1-10.5s15.2,3.5,19,6.5c3.2,2.6,4.4,3.4,7.1,3.1a8.05,8.05,0,0,1,1.8,16Z"/><path class="cls-14" d="M434.8,187.4c-9.5,1-15.2-3.5-19-6.5-3.2-2.6-4.4-3.4-7.1-3.1s-3.7,1.3-6.3,4.6c-3,3.8-7.6,9.5-17.1,10.5s-15.2-3.5-19-6.5c-3.2-2.6-4.4-3.4-7.1-3.1s-3.7,1.3-6.3,4.6c-3,3.8-7.6,9.5-17.1,10.5s-15.2-3.5-19-6.5c-3.2-2.6-4.4-3.4-7.1-3.1a8.05,8.05,0,1,1-1.8-16c9.5-1,15.2,3.5,19,6.5,3.2,2.6,4.4,3.4,7.1,3.1s3.7-1.3,6.3-4.6c3-3.8,7.6-9.5,17.1-10.5s15.2,3.5,19,6.5c3.2,2.6,4.4,3.4,7.1,3.1s3.7-1.3,6.3-4.6c3-3.8,7.6-9.5,17.1-10.5s15.2,3.5,19,6.5c3.2,2.6,4.4,3.4,7.1,3.1a8.05,8.05,0,1,1,1.8,16Z"/></g></g></svg>